<svg width="66" height="66" viewBox="0 0 66 66" fill="none" xmlns="http://www.w3.org/2000/svg">
<path d="M2.145 44.9707C2.18109 45.4244 2.51006 45.8008 2.95556 45.8967L6.54947 46.6722C6.67631 47.2848 6.83719 47.8891 7.03209 48.479L4.31166 50.9437C3.97444 51.2489 3.8775 51.7398 4.07344 52.1512C4.5705 53.1969 5.12428 54.1632 5.71931 55.0233C5.97712 55.3966 6.44944 55.5575 6.88359 55.4182L10.3764 54.2931C10.7941 54.7613 11.2386 55.2058 11.7067 55.6235L10.5817 59.1163C10.4424 59.5484 10.6023 60.0217 10.9766 60.2806C11.8367 60.8756 12.803 61.4294 13.8487 61.9265C14.2612 62.1224 14.751 62.0244 15.0563 61.6882L17.5209 58.9678C18.1118 59.1617 18.7162 59.3236 19.3287 59.4504L20.1042 63.0443C20.2001 63.4888 20.5765 63.8178 21.0293 63.8549C21.5779 63.8982 22.1275 63.9374 22.6875 63.9374C23.2475 63.9374 23.7971 63.8982 24.3457 63.8549C24.7995 63.8188 25.1759 63.4898 25.2718 63.0443L26.0473 59.4504C26.6599 59.3236 27.2652 59.1627 27.8551 58.9678L30.3198 61.6882C30.6261 62.0255 31.1169 62.1234 31.5274 61.9265C32.5731 61.4294 33.5393 60.8746 34.3994 60.2806C34.7738 60.0217 34.9336 59.5484 34.7944 59.1163L33.6693 55.6235C34.1375 55.2058 34.5819 54.7613 34.9996 54.2942L38.4924 55.4193C38.9245 55.5595 39.3979 55.3987 39.6567 55.0243C40.2518 54.1642 40.8055 53.198 41.3026 52.1523C41.4985 51.7408 41.4016 51.2499 41.0644 50.9447L38.3439 48.48C38.5378 47.8891 38.6997 47.2848 38.8266 46.6722L42.4205 45.8967C42.8649 45.8008 43.1939 45.4244 43.231 44.9717C43.2733 44.422 43.3125 43.8724 43.3125 43.3124C43.3125 42.7524 43.2733 42.2028 43.23 41.6542C43.1939 41.2004 42.8649 40.824 42.4194 40.7281L38.8255 39.9526C38.6987 39.34 38.5378 38.7347 38.3429 38.1448L41.0633 35.6801C41.4006 35.3749 41.4975 34.884 41.3016 34.4725C40.8045 33.4268 40.2497 32.4606 39.6557 31.6005C39.3968 31.2261 38.9235 31.0653 38.4914 31.2055L34.9986 32.3306C34.5809 31.8624 34.1364 31.418 33.6682 31.0003L34.7933 27.5075C34.9326 27.0754 34.7727 26.602 34.3984 26.3432C33.5383 25.7482 32.572 25.1944 31.5263 24.6973C31.1138 24.5003 30.624 24.5983 30.3188 24.9355L27.8541 27.656C27.2632 27.4621 26.6588 27.3002 26.0463 27.1733L25.2708 23.5794C25.1749 23.135 24.7985 22.806 24.3457 22.7689C23.2475 22.6802 22.1265 22.6822 21.0282 22.7689C20.5745 22.805 20.1981 23.1339 20.1022 23.5794L19.3267 27.1733C18.7141 27.3002 18.1098 27.4611 17.5199 27.656L15.0552 24.9355C14.75 24.5983 14.2601 24.5014 13.8476 24.6973C12.8019 25.1944 11.8357 25.7482 10.9756 26.3432C10.6012 26.602 10.4414 27.0754 10.5806 27.5075L11.7057 31.0003C11.2375 31.418 10.7931 31.8624 10.3754 32.3306L6.88359 31.2055C6.45047 31.0653 5.97712 31.2261 5.71931 31.6005C5.12428 32.4606 4.5705 33.4268 4.07344 34.4725C3.8775 34.884 3.97444 35.3749 4.31166 35.6801L7.03209 38.1448C6.83822 38.7357 6.67631 39.34 6.54947 39.9526L2.95556 40.7281C2.51109 40.824 2.18212 41.2004 2.145 41.6531C2.10169 42.2028 2.0625 42.7524 2.0625 43.3124C2.0625 43.8724 2.10169 44.422 2.145 44.9707ZM4.14666 42.5812L7.65497 41.8233C8.06953 41.7336 8.38716 41.3994 8.45522 40.9807C8.60991 40.0299 8.85947 39.0967 9.19669 38.2057C9.34725 37.8097 9.23897 37.3611 8.92444 37.0764L6.27516 34.6757C6.50616 34.2333 6.74747 33.8094 6.99703 33.4083L10.396 34.5035C10.7982 34.6324 11.2417 34.5035 11.5108 34.1755C12.1192 33.431 12.8061 32.7452 13.5506 32.1357C13.8786 31.8676 14.0095 31.4252 13.8786 31.0209L12.7834 27.6219C13.1845 27.3713 13.6073 27.13 14.0508 26.9001L16.4515 29.5504C16.7372 29.8649 17.1868 29.9732 17.5818 29.8226C18.4707 29.4854 19.404 29.2358 20.3558 29.0812C20.7745 29.0131 21.1087 28.6955 21.1984 28.2809L21.9553 24.7726C22.441 24.7468 22.935 24.7458 23.4187 24.7726L24.1766 28.2809C24.2663 28.6955 24.6005 29.0131 25.0192 29.0812C25.97 29.2358 26.9032 29.4854 27.7943 29.8226C28.1882 29.9732 28.6378 29.8659 28.9235 29.5504L31.3242 26.9011C31.7666 27.1321 32.1905 27.3734 32.5916 27.623L31.4964 31.022C31.3665 31.4262 31.4964 31.8676 31.8244 32.1367C32.5689 32.7452 33.2547 33.432 33.8642 34.1766C34.1333 34.5055 34.5757 34.6365 34.979 34.5045L38.378 33.4093C38.6286 33.8105 38.8699 34.2333 39.0998 34.6757L36.4495 37.0764C36.135 37.3611 36.0267 37.8097 36.1773 38.2067C36.5145 39.0956 36.7641 40.0289 36.9188 40.9807C36.9868 41.3994 37.3044 41.7336 37.719 41.8233L41.2273 42.5802C41.2407 42.8226 41.25 43.067 41.25 43.3124C41.25 43.5578 41.2417 43.8022 41.2283 44.0436L37.72 44.8015C37.3055 44.8912 36.9878 45.2254 36.9198 45.6441C36.7651 46.5949 36.5155 47.5282 36.1783 48.4192C36.0278 48.8152 36.136 49.2637 36.4506 49.5484L39.0998 51.9491C38.8688 52.3915 38.6275 52.8154 38.378 53.2165L34.979 52.1213C34.5737 51.9893 34.1333 52.1203 33.8642 52.4493C33.2568 53.1918 32.57 53.8786 31.8244 54.4891C31.4964 54.7572 31.3665 55.1996 31.4964 55.6028L32.5916 59.0018C32.1905 59.2524 31.7677 59.4937 31.3252 59.7237L28.9245 57.0734C28.6399 56.7589 28.1913 56.6527 27.7943 56.8012C26.9053 57.1384 25.972 57.3879 25.0202 57.5426C24.6015 57.6107 24.2674 57.9283 24.1777 58.3429L23.4207 61.8512C22.935 61.877 22.441 61.878 21.9574 61.8512L21.1994 58.3429C21.1097 57.9283 20.7756 57.6107 20.3569 57.5426C19.4061 57.3879 18.4728 57.1384 17.5818 56.8012C17.1868 56.6506 16.7372 56.7578 16.4526 57.0734L14.0518 59.7227C13.6094 59.4917 13.1856 59.2504 12.7844 59.0008L13.8796 55.6018C14.0095 55.1976 13.8796 54.7562 13.5517 54.487C12.8071 53.8786 12.1213 53.1918 11.5118 52.4472C11.2427 52.1182 10.7992 51.9883 10.3971 52.1193L6.99806 53.2145C6.74747 52.8133 6.50616 52.3905 6.27619 51.9471L8.9265 49.5463C9.24103 49.2617 9.34931 48.8131 9.19875 48.4161C8.86153 47.5271 8.61197 46.5938 8.45728 45.642C8.38922 45.2233 8.07159 44.8892 7.65703 44.7995L4.14666 44.0446C4.13428 43.8022 4.125 43.5578 4.125 43.3124C4.125 43.067 4.13325 42.8226 4.14666 42.5812Z" fill="white"/>
<path d="M55.9133 16.7423C56.3011 16.6206 56.5816 16.2813 56.628 15.8771C56.6899 15.3563 56.7188 14.885 56.7188 14.4375C56.7188 13.9899 56.6899 13.5186 56.629 12.9978C56.5826 12.5936 56.3021 12.2543 55.9144 12.1326L53.0547 11.2344C52.9691 11.0003 52.8743 10.7703 52.7701 10.5455L54.1561 7.89007C54.3438 7.53016 54.3025 7.09291 54.0509 6.77322C53.4538 6.01835 52.767 5.33154 52.0101 4.73238C51.6904 4.47972 51.2531 4.4395 50.8932 4.62616L48.2357 6.01216C48.0109 5.90904 47.7809 5.81416 47.5468 5.72857L46.6486 2.86891C46.5269 2.48116 46.1876 2.20066 45.7834 2.15425C44.7397 2.03257 43.9467 2.03257 42.9031 2.15425C42.4988 2.20066 42.1596 2.48116 42.0379 2.86891L41.1397 5.72857C40.9056 5.81416 40.6756 5.90904 40.4508 6.01319L37.7953 4.62719C37.4354 4.44054 36.9992 4.48075 36.6785 4.73238C35.9236 5.32947 35.2368 6.01629 34.6376 6.77322C34.385 7.09291 34.3437 7.52913 34.5314 7.89007L35.9164 10.5455C35.8132 10.7703 35.7184 11.0003 35.6328 11.2344L32.7731 12.1326C32.3854 12.2543 32.1049 12.5936 32.0585 12.9978C31.9976 13.5186 31.9688 13.9899 31.9688 14.4375C31.9688 14.885 31.9976 15.3563 32.0585 15.8771C32.1049 16.2813 32.3854 16.6206 32.7731 16.7423L35.6328 17.6405C35.7184 17.8746 35.8132 18.1046 35.9174 18.3294L34.5314 20.9849C34.3437 21.3448 34.385 21.782 34.6366 22.1017C35.2337 22.8566 35.9205 23.5434 36.6774 24.1426C36.9961 24.3952 37.4344 24.4354 37.7943 24.2488L40.4497 22.8638C40.6746 22.9669 40.9045 23.0618 41.1386 23.1474L42.0368 26.0071C42.1585 26.3948 42.4978 26.6753 42.9021 26.7217C43.4249 26.7836 43.8962 26.8125 44.3438 26.8125C44.7913 26.8125 45.2626 26.7836 45.7834 26.7228C46.1876 26.6764 46.5269 26.3958 46.6486 26.0081L47.5468 23.1484C47.7809 23.0629 48.0109 22.968 48.2357 22.8638L50.8912 24.2498C51.2511 24.4375 51.6883 24.3973 52.008 24.1446C52.7629 23.5475 53.4497 22.8607 54.0488 22.1038C54.3015 21.7841 54.3428 21.3479 54.1551 20.9869L52.7691 18.3315C52.8732 18.1067 52.9681 17.8767 53.0537 17.6426L55.9133 16.7423ZM51.9327 15.8307C51.6068 15.9338 51.3532 16.1906 51.2542 16.5185C51.1139 16.9847 50.9283 17.4333 50.7035 17.853C50.5416 18.1541 50.5385 18.5161 50.6973 18.8182L52.0059 21.3262C51.7615 21.5974 51.5027 21.8563 51.2325 22.0997L48.7245 20.791C48.4213 20.6322 48.0593 20.6363 47.7593 20.7972C47.3395 21.022 46.8909 21.2076 46.4248 21.3479C46.0979 21.4459 45.8401 21.7006 45.737 22.0264L44.8872 24.7324C44.5108 24.7551 44.1777 24.7551 43.8003 24.7324L42.9505 22.0264C42.8474 21.7006 42.5906 21.4469 42.2627 21.3479C41.7955 21.2076 41.3469 21.022 40.9293 20.7972C40.6282 20.6353 40.2662 20.6322 39.963 20.791L37.455 22.0997C37.1838 21.8553 36.9249 21.5964 36.6816 21.3262L37.9902 18.8182C38.148 18.5161 38.1459 18.1531 37.984 17.853C37.7592 17.4333 37.5736 16.9847 37.4333 16.5185C37.3354 16.1916 37.0807 15.9338 36.7548 15.8307L34.0488 14.9809C34.0364 14.7922 34.0312 14.6118 34.0312 14.4375C34.0312 14.2632 34.0364 14.0827 34.0488 13.894L36.7548 13.0443C37.0807 12.9411 37.3343 12.6843 37.4333 12.3564C37.5736 11.8893 37.7592 11.4407 37.984 11.023C38.1459 10.7219 38.149 10.3599 37.9902 10.0567L36.6816 7.54872C36.926 7.2775 37.1848 7.01866 37.455 6.77529L39.963 8.08394C40.2652 8.24172 40.6282 8.23863 40.9282 8.07775C41.348 7.85294 41.7966 7.66732 42.2627 7.52707C42.5896 7.4291 42.8474 7.17438 42.9505 6.8485L43.8003 4.1425C44.1767 4.11982 44.5098 4.11982 44.8872 4.1425L45.737 6.8485C45.8401 7.17438 46.0969 7.42807 46.4248 7.52707C46.892 7.66732 47.3406 7.85294 47.7582 8.07775C48.0593 8.23966 48.4213 8.24275 48.7245 8.08394L51.2325 6.77529C51.5037 7.01969 51.7626 7.27854 52.0059 7.54872L50.6973 10.0567C50.5395 10.3589 50.5416 10.7219 50.7035 11.022C50.9283 11.4417 51.1139 11.8903 51.2542 12.3564C51.3521 12.6833 51.6068 12.9411 51.9327 13.0443L54.6387 13.894C54.6511 14.0827 54.6562 14.2632 54.6562 14.4375C54.6562 14.6118 54.6511 14.7922 54.6387 14.9809L51.9327 15.8307Z" fill="white"/>
<path d="M63.1764 36.0566L61.4047 35.4275C61.3037 35.1398 61.1882 34.8583 61.0572 34.585L61.8626 32.8886C62.0307 32.5359 61.9843 32.1193 61.743 31.812C61.2274 31.153 60.6313 30.5559 59.9703 30.0382C59.6619 29.7969 59.2433 29.7515 58.8926 29.9186L57.1952 30.724C56.9229 30.5941 56.6414 30.4775 56.3537 30.3775L55.7236 28.6058C55.5926 28.2376 55.2637 27.9747 54.8759 27.9272C53.9571 27.8169 53.2919 27.8169 52.3731 27.9272C51.9853 27.9736 51.6563 28.2366 51.5254 28.6058L50.8963 30.3775C50.6086 30.4786 50.3271 30.5941 50.0538 30.725L48.3574 29.9196C48.0067 29.7526 47.5891 29.799 47.2807 30.0392C46.6218 30.5549 46.0247 31.1509 45.507 31.812C45.2667 32.1193 45.2203 32.5369 45.3874 32.8896L46.1928 34.5871C46.0628 34.8593 45.9463 35.1408 45.8463 35.4285L44.0746 36.0586C43.7064 36.1896 43.4435 36.5186 43.396 36.9063C43.3393 37.3632 43.3125 37.7726 43.3125 38.1562C43.3125 38.5398 43.3393 38.9482 43.395 39.4071C43.4414 39.7949 43.7044 40.1238 44.0736 40.2548L45.8453 40.8839C45.9463 41.1716 46.0618 41.4531 46.1928 41.7264L45.3874 43.4228C45.2193 43.7755 45.2657 44.1921 45.507 44.4994C46.0226 45.1584 46.6187 45.7555 47.2797 46.2732C47.587 46.5134 48.0057 46.5599 48.3574 46.3928L50.0548 45.5874C50.3271 45.7173 50.6086 45.8339 50.8963 45.9339L51.5264 47.7056C51.6574 48.0737 51.9863 48.3367 52.3741 48.3841C52.833 48.4419 53.2414 48.4687 53.625 48.4687C54.0086 48.4687 54.417 48.4419 54.8759 48.3862C55.2637 48.3398 55.5926 48.0768 55.7236 47.7076L56.3527 45.9359C56.6404 45.8349 56.9219 45.7194 57.1952 45.5884L58.8916 46.3938C59.2432 46.5619 59.6619 46.5165 59.9682 46.2742C60.6272 45.7586 61.2243 45.1625 61.742 44.5015C61.9822 44.1942 62.0287 43.7765 61.8616 43.4238L61.0562 41.7264C61.1861 41.4541 61.3027 41.1726 61.4027 40.8849L63.1744 40.2548C63.5425 40.1238 63.8055 39.7949 63.8529 39.4071C63.9107 38.9482 63.9375 38.5398 63.9375 38.1562C63.9375 37.7726 63.9107 37.3642 63.855 36.9053C63.8086 36.5165 63.5456 36.1886 63.1764 36.0566ZM61.8647 38.5326L60.2302 39.1132C59.9136 39.2256 59.6712 39.4855 59.5815 39.8093C59.4464 40.2991 59.2536 40.7663 59.0092 41.1984C58.8442 41.4902 58.8318 41.845 58.9751 42.1482L59.7156 43.7084C59.5444 43.8961 59.3649 44.0756 59.1783 44.2457L57.618 43.5053C57.3169 43.362 56.9611 43.3743 56.6682 43.5393C56.2351 43.7848 55.7679 43.9766 55.2802 44.1117C54.9563 44.2014 54.6965 44.4437 54.583 44.7603L54.0024 46.3949C53.7529 46.4083 53.4992 46.4083 53.2496 46.3949L52.669 44.7603C52.5566 44.4437 52.2967 44.2014 51.9729 44.1117C51.4831 43.9766 51.0159 43.7837 50.5838 43.5393C50.292 43.3754 49.9383 43.363 49.6341 43.5053L48.0738 44.2457C47.8861 44.0745 47.7067 43.8951 47.5365 43.7084L48.2769 42.1482C48.4213 41.845 48.4079 41.4902 48.2429 41.1984C47.9975 40.7653 47.8057 40.2981 47.6706 39.8103C47.5808 39.4865 47.3385 39.2266 47.0219 39.1132L45.3874 38.5326C45.3791 38.4078 45.375 38.283 45.375 38.1562C45.375 38.0294 45.3791 37.9035 45.3853 37.7798L47.0198 37.1982C47.3364 37.0858 47.5788 36.8259 47.6675 36.5021C47.8036 36.0112 47.9964 35.5451 48.2408 35.113C48.4058 34.8211 48.4182 34.4664 48.2749 34.1632L47.5344 32.6029C47.7056 32.4152 47.8851 32.2358 48.0717 32.0656L49.632 32.8061C49.9352 32.9505 50.2899 32.9381 50.5818 32.772C51.0149 32.5266 51.4821 32.3348 51.9698 32.1997C52.2937 32.11 52.5535 31.8676 52.667 31.5511L53.2476 29.9165C53.4971 29.9031 53.7508 29.9031 54.0004 29.9165L54.581 31.5511C54.6934 31.8676 54.9533 32.11 55.2771 32.1997C55.7669 32.3348 56.2341 32.5276 56.6662 32.772C56.959 32.9381 57.3127 32.9505 57.6159 32.8061L59.1762 32.0656C59.3639 32.2368 59.5433 32.4163 59.7135 32.6029L58.9731 34.1632C58.8287 34.4664 58.8421 34.8211 59.0071 35.113C59.2525 35.5461 59.4443 36.0133 59.5794 36.501C59.6692 36.8249 59.9115 37.0847 60.2281 37.1982L61.8626 37.7788C61.8709 37.9046 61.875 38.0294 61.875 38.1562C61.875 38.283 61.8709 38.4078 61.8647 38.5326Z" fill="white"/>
<path d="M22.6875 54.6562C28.942 54.6562 34.0312 49.567 34.0312 43.3125C34.0312 37.058 28.942 31.9688 22.6875 31.9688C16.433 31.9688 11.3438 37.058 11.3438 43.3125C11.3438 49.567 16.433 54.6562 22.6875 54.6562ZM22.6875 34.0312C27.8046 34.0312 31.9688 38.1954 31.9688 43.3125C31.9688 48.4296 27.8046 52.5938 22.6875 52.5938C17.5704 52.5938 13.4062 48.4296 13.4062 43.3125C13.4062 38.1954 17.5704 34.0312 22.6875 34.0312Z" fill="white"/>
<path d="M2.08508 26.1516L3.66908 27.4726C8.39118 21.81 15.3222 18.5626 22.6874 18.5626C23.2123 18.5626 23.7362 18.5925 24.2601 18.6255L22.9896 19.896L24.4477 21.3542L27.5415 18.2604C27.9447 17.8572 27.9447 17.2055 27.5415 16.8022L24.4477 13.7085L22.9896 15.1667L24.391 16.5682C23.8238 16.5321 23.2556 16.5001 22.6874 16.5001C14.7096 16.5001 7.20008 20.0177 2.08508 26.1516Z" fill="white"/>
<path d="M44.3438 9.28125C41.5006 9.28125 39.1875 11.5943 39.1875 14.4375C39.1875 17.2807 41.5006 19.5938 44.3438 19.5938C47.1869 19.5938 49.5 17.2807 49.5 14.4375C49.5 11.5943 47.1869 9.28125 44.3438 9.28125ZM44.3438 17.5312C42.6381 17.5312 41.25 16.1432 41.25 14.4375C41.25 12.7318 42.6381 11.3438 44.3438 11.3438C46.0494 11.3438 47.4375 12.7318 47.4375 14.4375C47.4375 16.1432 46.0494 17.5312 44.3438 17.5312Z" fill="white"/>
<path d="M53.625 34.0312C51.3501 34.0312 49.5 35.8813 49.5 38.1562C49.5 40.4312 51.3501 42.2812 53.625 42.2812C55.8999 42.2812 57.75 40.4312 57.75 38.1562C57.75 35.8813 55.8999 34.0312 53.625 34.0312ZM53.625 40.2188C52.4875 40.2188 51.5625 39.2937 51.5625 38.1562C51.5625 37.0188 52.4875 36.0938 53.625 36.0938C54.7625 36.0938 55.6875 37.0188 55.6875 38.1562C55.6875 39.2937 54.7625 40.2188 53.625 40.2188Z" fill="white"/>
<path d="M63.1084 5.17697L57.9522 4.14572C57.3912 4.03228 56.8498 4.39631 56.7384 4.95422L55.7072 10.1105L57.7294 10.5157L58.2853 7.73962C59.2846 9.81862 59.8126 12.1101 59.8126 14.4376C59.8126 17.9933 58.639 21.3367 56.4197 24.1056L58.0295 25.3957C60.5097 22.3009 61.8751 18.41 61.8751 14.4376C61.8751 11.7367 61.2512 9.07406 60.0642 6.67125L62.7042 7.19925L63.1084 5.17697Z" fill="white"/>
</svg>
