<svg width="52" height="59" viewBox="0 0 52 59" fill="none" xmlns="http://www.w3.org/2000/svg">
<path d="M51.5061 15.2354L46.5686 10.2982V2.93365C46.5686 1.316 45.2526 0 43.6348 0H3.09986C1.50245 0 0.20282 1.29963 0.20282 2.89704V51.4987C0.20282 53.0961 1.50245 54.3957 3.09986 54.3957H4.73852V56.0101C4.73852 57.6076 6.03815 58.9072 7.63568 58.9072H13.9202C14.4542 58.9072 14.887 58.4744 14.887 57.9404C14.887 57.4063 14.4542 56.9736 13.9202 56.9736H7.63568C7.10433 56.9736 6.67211 56.5414 6.67211 56.0101V17.1392C6.67211 16.6052 6.23924 16.1724 5.70531 16.1724C5.17138 16.1724 4.73852 16.6052 4.73852 17.1392V52.4621H3.09986C2.56864 52.4621 2.13641 52.0299 2.13641 51.4987V2.89704C2.13641 2.36582 2.56864 1.93359 3.09986 1.93359H43.6349C44.1864 1.93359 44.6351 2.38219 44.6351 2.93365V8.36473L41.0648 4.79467C40.8834 4.61343 40.6376 4.51159 40.3812 4.51159H7.63568C6.03815 4.51159 4.73852 5.81122 4.73852 7.40863V12.6387C4.73852 13.1728 5.17138 13.6055 5.70531 13.6055C6.23924 13.6055 6.67211 13.1728 6.67211 12.6387V7.4085C6.67211 6.87728 7.10433 6.44505 7.63568 6.44505H39.4143V15.9173C39.4143 16.4513 39.847 16.884 40.381 16.8841L49.8557 16.8857V56.01C49.8557 56.5412 49.4235 56.9735 48.8923 56.9735H42.6828C42.1489 56.9735 41.716 57.4062 41.716 57.9403C41.716 58.4743 42.1489 58.9071 42.6828 58.9071H48.8923C50.4897 58.9071 51.7893 57.6074 51.7893 56.01V15.9191C51.7893 15.6628 51.6875 15.4169 51.5061 15.2354ZM41.3479 14.9507V7.81223L48.488 14.952L41.3479 14.9507Z" fill="#1B3858"/>
</svg>
