<svg width="68" height="70" viewBox="0 0 68 70" fill="none" xmlns="http://www.w3.org/2000/svg">
<path d="M33.9999 20.8544H32.0816V21.955C32.0816 22.1643 32.1668 22.3541 32.3064 22.4937C32.4458 22.6332 32.6397 22.7222 32.849 22.7222H35.1549C35.3641 22.7222 35.5541 22.6331 35.6936 22.4937C35.8332 22.3542 35.9222 22.1643 35.9222 21.955V20.8544H33.9999ZM61.4538 45.7313L56.3228 43.9912L52.9782 45.6306V47.1769C52.9782 48.3395 53.455 49.4015 54.2262 50.1688C54.9935 50.9361 56.0515 51.4128 57.218 51.4128C58.3807 51.4128 59.4426 50.9361 60.21 50.1688C60.9772 49.4014 61.454 48.3395 61.454 47.1769V45.7313H61.4538ZM52.9781 43.3556L55.7452 42.0031C55.9932 41.8597 56.2954 41.8209 56.5861 41.9218L61.4537 43.5688V41.538C61.4537 41.011 61.2367 40.5304 60.888 40.1816C60.543 39.8329 60.0625 39.6158 59.5353 39.6158H54.9002C54.3733 39.6158 53.8928 39.8327 53.5438 40.1816C53.1949 40.5304 52.978 41.011 52.978 41.538V43.3556H52.9781ZM6.54583 42.2085H15.0216V39.6158H8.46823C7.94118 39.6158 7.46061 39.8327 7.11171 40.1816C6.76294 40.5304 6.54583 41.011 6.54583 41.538V42.2085ZM15.0217 44.2626H6.54583V47.1769C6.54583 48.3395 7.02257 49.4015 7.7938 50.1688C8.56106 50.9361 9.61927 51.4128 10.7858 51.4128C11.9484 51.4128 13.0103 50.9361 13.7776 50.1688C14.5448 49.4014 15.0217 48.3395 15.0217 47.1769V44.2626ZM38.2397 45.6306C36.829 45.8244 34.5774 45.7816 32.694 44.1424C32.0313 44.5222 31.0043 44.9369 29.7641 44.8477V47.1769C29.7641 48.3395 30.2407 49.4015 31.0081 50.1688C31.7795 50.9361 32.8374 51.4128 34 51.4128C35.1665 51.4128 36.2246 50.9361 36.992 50.1688C37.7632 49.4014 38.2398 48.3395 38.2398 47.1769V45.6306H38.2397ZM29.7641 42.7937C30.6283 42.906 31.4926 42.6076 32.1475 42.0457C32.5738 41.6737 33.2172 41.7201 33.5892 42.1464C35.0891 43.875 37.1741 43.7702 38.2398 43.5687V41.5379C38.2398 41.0108 38.0229 40.5303 37.6739 40.1815C37.3252 39.8327 36.8447 39.6156 36.3176 39.6156H31.6825C31.1555 39.6156 30.6787 39.8326 30.33 40.1815C29.9811 40.5303 29.7641 41.0108 29.7641 41.5379V42.7937ZM17.0718 47.1769C17.0718 48.4713 16.6764 49.6804 15.9983 50.6842C17.4167 50.8199 18.6916 51.4593 19.649 52.4128C20.734 53.4979 21.4046 54.9977 21.4046 56.6449V68.9768C21.4046 69.5427 20.9472 70 20.3815 70C13.9831 70 7.58448 70 1.19001 70C0.624131 70 0.162979 69.5427 0.162979 68.9768V65.1323C0.162979 64.5664 0.624131 64.1092 1.19001 64.1092C1.75589 64.1092 2.21321 64.5665 2.21321 65.1323V67.9498H4.18579V58.5594C4.18579 57.9897 4.64694 57.5323 5.21282 57.5323C5.7787 57.5323 6.23985 57.9897 6.23985 58.5594V67.9498H15.3318V58.5594C15.3318 57.9897 15.7891 57.5323 16.3588 57.5323C16.9247 57.5323 17.3819 57.9897 17.3819 58.5594V67.9498H19.3546V56.6448C19.3546 55.5635 18.9129 54.5791 18.1997 53.8621C17.4828 53.149 16.4984 52.7073 15.4172 52.7073H13.7739C12.8825 53.1878 11.8632 53.4629 10.786 53.4629C9.70472 53.4629 8.6893 53.1877 7.79804 52.7073H6.15454C5.06927 52.7073 4.08489 53.149 3.37177 53.8621C2.65878 54.5791 2.21308 55.5635 2.21308 56.6448V60.4893C2.21308 61.0552 1.75561 61.5125 1.18987 61.5125C0.623994 61.5125 0.162842 61.0552 0.162842 60.4893V56.6448C0.162842 54.9976 0.837275 53.4978 1.92228 52.4126C2.87958 51.4592 4.15462 50.8199 5.57307 50.6841C4.89481 49.6803 4.49559 48.4712 4.49559 47.1767V43.2353V41.5378C4.49559 40.441 4.9413 39.449 5.66208 38.732C6.38286 38.0111 7.37503 37.5654 8.46796 37.5654H16.0483C16.6142 37.5654 17.0714 38.0227 17.0714 38.5886V43.2353V47.1769H17.0718ZM63.5041 47.1769C63.5041 48.4713 63.1087 49.6804 62.4306 50.6842C63.8489 50.8199 65.1239 51.4593 66.0811 52.4128C67.1664 53.4979 67.8368 54.9977 67.8368 56.6449V68.9768C67.8368 69.5427 67.3794 70 66.8138 70C60.4153 70 54.0168 70 47.6223 70C47.0564 70 46.5953 69.5427 46.5953 68.9768V65.1323C46.5953 64.5664 47.0564 64.1092 47.6223 64.1092C48.1882 64.1092 48.6453 64.5665 48.6453 65.1323V67.9498H50.6181V58.5594C50.6181 57.9897 51.0792 57.5323 51.6451 57.5323C52.211 57.5323 52.6721 57.9897 52.6721 58.5594V67.9498H61.7641V58.5594C61.7641 57.9897 62.2214 57.5323 62.7911 57.5323C63.357 57.5323 63.8142 57.9897 63.8142 58.5594V67.9498H65.7867V56.6448C65.7867 55.5635 65.3451 54.5791 64.6319 53.8621C63.9149 53.149 62.9307 52.7073 61.8494 52.7073H60.206C59.3146 53.1878 58.2954 53.4629 57.218 53.4629C56.1369 53.4629 55.1214 53.1877 54.2302 52.7073H52.5868C51.5015 52.7073 50.5172 53.149 49.8042 53.8621C49.091 54.5791 48.6453 55.5635 48.6453 56.6448V60.4893C48.6453 61.0552 48.188 61.5125 47.6223 61.5125C47.0565 61.5125 46.5953 61.0552 46.5953 60.4893V56.6448C46.5953 54.9976 47.2697 53.4978 48.3547 52.4126C49.312 51.4592 50.587 50.8199 52.0055 50.6841C51.3272 49.6803 50.928 48.4712 50.928 47.1767V41.5378C50.928 40.441 51.3737 39.449 52.0945 38.732C52.8153 38.0111 53.8074 37.5654 54.9002 37.5654H59.5353C60.6282 37.5654 61.6204 38.0111 62.3411 38.732C63.0581 39.449 63.5038 40.445 63.5038 41.5378V47.1769H63.5041ZM40.2899 47.1769C40.2899 48.4713 39.8907 49.6804 39.2163 50.6842C40.6309 50.8199 41.9096 51.4593 42.8631 52.4128C43.9484 53.4979 44.6227 54.9977 44.6227 56.6449V68.9768C44.6227 69.5427 44.1652 70 43.5955 70C37.201 70 30.8026 70 24.4042 70C23.8383 70 23.3811 69.5427 23.3811 68.9768V65.1323C23.3811 64.5664 23.8384 64.1092 24.4042 64.1092C24.9699 64.1092 25.4312 64.5665 25.4312 65.1323V67.9498H27.4039V58.5594C27.4039 57.9897 27.8611 57.5323 28.4268 57.5323C28.9967 57.5323 29.4539 57.9897 29.4539 58.5594V67.9498H38.5496V58.5594C38.5496 57.9897 39.0071 57.5323 39.5728 57.5323C40.1386 57.5323 40.5999 57.9897 40.5999 58.5594V67.9498H42.5724V56.6448C42.5724 55.5635 42.1267 54.5791 41.4137 53.8621C40.7006 53.149 39.7164 52.7073 38.6351 52.7073H36.9879C36.0965 53.1878 35.0814 53.4629 34 53.4629C32.9227 53.4629 31.9035 53.1877 31.0159 52.7073H29.3688C28.2877 52.7073 27.3033 53.149 26.5902 53.8621C25.8732 54.5791 25.4313 55.5635 25.4313 56.6448V60.4893C25.4313 61.0552 24.97 61.5125 24.4043 61.5125C23.8384 61.5125 23.3812 61.0552 23.3812 60.4893V56.6448C23.3812 54.9976 24.0516 53.4978 25.1368 52.4126C26.094 51.4592 27.369 50.8199 28.7875 50.6841C28.1092 49.6803 27.7141 48.4712 27.7141 47.1767V41.5378C27.7141 40.441 28.1598 39.449 28.8768 38.732C29.5974 38.0111 30.5897 37.5654 31.6825 37.5654H36.3176C37.4104 37.5654 38.4063 38.0111 39.1233 38.732C39.8442 39.449 40.2899 40.441 40.2899 41.5378V47.1769ZM18.2305 27.1327H30.3337C30.7407 27.1327 31.0893 27.369 31.256 27.7102C32.1705 29.2953 33.0853 30.8804 33.9998 32.4655C34.9259 30.8571 35.8561 29.2528 36.7824 27.6482C36.9645 27.3305 37.3018 27.1328 37.666 27.1328H49.8002C50.1025 27.1328 50.3737 27.2646 50.5638 27.4739L55.6135 32.3377L56.1832 27.4507C56.2337 27.0128 56.5514 26.6716 56.9544 26.5709C59.5277 25.7685 61.7563 24.1525 63.3298 22.0287C64.8721 19.9474 65.7867 17.3703 65.7867 14.5914C65.7867 11.1422 64.3762 8.01076 62.105 5.7359C59.83 3.4609 56.6949 2.05023 53.2457 2.05023H14.7541C11.3049 2.05023 8.17346 3.4609 5.89874 5.7359C3.62374 8.01076 2.21321 11.1461 2.21321 14.5914C2.21321 17.3703 3.12786 19.9474 4.67018 22.0287C6.2553 24.1679 8.50309 25.7917 11.0997 26.5902C11.5337 26.722 11.774 27.0707 11.8244 27.5047L12.3863 32.3375L17.4941 27.4195C17.6918 27.2296 17.9631 27.1327 18.2305 27.1327ZM29.7447 29.1829H18.6103L12.3551 35.2093C12.1963 35.3798 11.9755 35.4962 11.7235 35.5232C11.1616 35.5891 10.654 35.1861 10.5919 34.6242L9.85948 28.3303C7.11171 27.342 4.73608 25.5515 3.02696 23.2456C1.22884 20.8157 0.162979 17.8198 0.162979 14.5914C0.162979 10.5764 1.80634 6.92959 4.44938 4.28654C7.09229 1.64322 10.7391 0 14.7541 0H53.2455C57.2605 0 60.9074 1.64322 63.5543 4.28641C66.1974 6.92945 67.8367 10.5764 67.8367 14.5913C67.8367 17.8196 66.7708 20.8154 64.9727 23.2455C63.2636 25.5514 60.8918 27.3418 58.1442 28.3302L57.4118 34.6086C57.3845 34.8333 57.2916 35.0504 57.1289 35.217C56.7375 35.624 56.0902 35.6355 55.6834 35.244L49.3895 29.1828H38.2551C37.1312 31.1283 36.0113 33.0738 34.8873 35.0193C34.7982 35.1703 34.6702 35.2983 34.5114 35.3913C34.0192 35.6742 33.3953 35.5037 33.1163 35.0154C31.9923 33.0699 30.8685 31.1284 29.7447 29.1829ZM30.0352 19.7497C30.0083 18.5832 29.3996 17.657 28.7641 16.692C27.8727 15.3394 26.9426 13.9288 26.9426 11.6577C26.9426 9.7084 27.7333 7.94486 29.0123 6.66996C30.2872 5.39109 32.0545 4.60045 33.9999 4.60045C35.9494 4.60045 37.7125 5.39109 38.9916 6.66996C40.2665 7.945 41.0572 9.7084 41.0572 11.6577C41.0572 13.9288 40.127 15.3394 39.2395 16.692C38.604 17.657 37.9955 18.5832 37.9683 19.7497L37.9723 21.955C37.9723 22.73 37.6544 23.4354 37.1429 23.9431C36.6352 24.4547 35.9298 24.7725 35.1548 24.7725H32.8489C32.0738 24.7725 31.3685 24.4546 30.8569 23.9431C30.3454 23.4355 30.0315 22.73 30.0315 21.955L30.0352 19.7497ZM31.9885 18.8002H36.0151C36.2399 17.5291 36.8755 16.5679 37.5344 15.568C38.2512 14.475 39.007 13.3279 39.007 11.6576C39.007 10.274 38.445 9.02221 37.542 8.11918C36.6352 7.21232 35.3835 6.65041 33.9999 6.65041C32.6203 6.65041 31.3685 7.21232 30.4616 8.11932C29.5546 9.02234 28.9967 10.2741 28.9967 11.6577C28.9967 13.328 29.7484 14.4751 30.4693 15.5682C31.1243 16.568 31.7599 17.5291 31.9885 18.8002Z" fill="white"/>
</svg>
