<svg width="56" height="70" viewBox="0 0 56 70" fill="none" xmlns="http://www.w3.org/2000/svg">
<path d="M55.9171 34.8761L54.0497 27.9296L55.9052 20.9803C55.9997 20.6264 55.8982 20.2489 55.639 19.9901L50.5479 14.9083L48.6806 7.96173C48.5854 7.6079 48.3087 7.33173 47.9548 7.23726L41.0056 5.38172L35.9144 0.299754C35.655 0.0409456 35.2774 -0.0600893 34.9239 0.0353402L27.9772 1.90264L21.0281 0.0472347C20.6744 -0.0471011 20.2968 0.0540706 20.0378 0.313562L14.9561 5.40455L8.00946 7.27199C7.65563 7.36701 7.3796 7.64372 7.28499 7.99769L5.42945 14.947L0.347622 20.0381C0.0886769 20.2973 -0.0120847 20.6749 0.0829347 21.0287L1.95037 27.974L0.800297 32.2818C0.654281 32.8289 0.979398 33.3908 1.52655 33.537C2.07369 33.6834 2.6356 33.3579 2.78176 32.8107L4.00279 28.2375C4.04927 28.0636 4.04914 27.8805 4.00238 27.7068L2.21725 21.0678L7.07485 16.2013C7.20214 16.0739 7.29347 15.9153 7.33981 15.7416L9.11374 9.09868L15.7539 7.31369C15.9276 7.26693 16.0862 7.17533 16.2134 7.0479L21.071 2.18141L27.7136 3.95506C27.8874 4.00154 28.0704 4.00127 28.2443 3.95465L34.8846 2.16965L39.7511 7.0274C39.8785 7.15455 40.0371 7.24587 40.2109 7.29236L46.8536 9.06601L48.6386 15.7062C48.6854 15.8799 48.7771 16.0385 48.9044 16.1657L53.771 21.0234L51.9973 27.666C51.9508 27.8399 51.9509 28.023 51.9977 28.1968L53.7828 34.837L48.9251 39.7037C48.7979 39.8311 48.7066 39.9897 48.6601 40.1634L46.8863 46.8061L40.2464 48.5909C40.0725 48.6377 39.9138 48.7294 39.7867 48.8568L34.9291 53.7233L28.287 51.9486C28.1127 51.902 27.9295 51.9021 27.7553 51.949L21.1154 53.7352L16.2489 48.8775C16.1214 48.7503 15.9628 48.6589 15.789 48.6125L14.3994 48.2412C14.3984 48.2409 14.3976 48.2405 14.3967 48.2404C14.3957 48.2401 14.3948 48.24 14.3938 48.2397L9.14655 46.8376L7.36141 40.1987C7.31452 40.0248 7.22292 39.8664 7.0955 39.7392L3.63789 36.2884C3.23689 35.8884 2.58762 35.8891 2.18785 36.2899C1.78781 36.6908 1.7885 37.3399 2.18936 37.74L5.45242 40.9966L7.31972 47.9416C7.41487 48.2953 7.69145 48.5715 8.04528 48.666L12.8753 49.9566L8.73585 65.402C8.63877 65.7638 8.74706 66.1501 9.01803 66.4089C9.28901 66.6677 9.67961 66.7583 10.0369 66.6446L16.6406 64.5454L21.3097 69.6655C21.5064 69.8813 21.7827 69.9999 22.0674 69.9999C22.1481 69.9999 22.2295 69.9904 22.3098 69.9708C22.674 69.8822 22.9609 69.602 23.0578 69.2399L27.0728 54.256L28.0229 54.0005L28.9225 54.2408L32.9418 69.2399C33.0388 69.6018 33.3256 69.8821 33.6898 69.9708C33.7702 69.9904 33.8516 69.9999 33.9322 69.9999C34.2169 69.9999 34.4932 69.8813 34.6899 69.6655L39.3593 64.5453L45.9632 66.6446C46.3204 66.7583 46.7112 66.6677 46.982 66.4089C47.253 66.1501 47.3613 65.764 47.2642 65.402L45.6017 59.1977C45.4553 58.6508 44.8928 58.3262 44.3458 58.4727C43.7988 58.6192 43.4742 59.1815 43.6208 59.7285L44.7981 64.1224L39.3548 62.392C38.9735 62.2707 38.5562 62.3824 38.2864 62.6782L34.4375 66.8989L31.2092 54.8521L34.9718 55.8574C35.3254 55.9518 35.7033 55.8505 35.9622 55.591L41.0439 50.5001L41.1411 50.4739L42.4233 55.2605C42.5459 55.7187 42.9603 56.0209 43.413 56.0209C43.5009 56.0209 43.5902 56.0095 43.6789 55.9857C44.2259 55.8392 44.5506 55.277 44.404 54.73L43.1214 49.9417L47.9904 48.6327C48.3443 48.5376 48.6203 48.261 48.7149 47.907L50.5705 40.9578L55.6524 35.8667C55.9114 35.6074 56.0121 35.2298 55.9171 34.8761ZM21.5621 66.8988L17.7136 62.6784C17.4437 62.3827 17.0267 62.271 16.6453 62.3921L11.202 64.1223L14.8566 50.4858L14.9948 50.5227L20.0858 55.6046C20.2806 55.799 20.5422 55.9043 20.8103 55.9043C20.899 55.9043 20.9886 55.8928 21.0765 55.8691L24.785 54.8716L21.5621 66.8988Z" fill="white"/>
</svg>
