<svg width="64" height="64" viewBox="0 0 64 64" fill="none" xmlns="http://www.w3.org/2000/svg">
<path d="M63.9688 33.0312C63.9688 26.1332 59.1033 20.3572 52.625 18.9361V5.1875C52.625 2.34434 50.3119 0.03125 47.4688 0.03125H20.6562C17.8131 0.03125 15.5 2.34434 15.5 5.1875V16.5312H9.53834L8.9165 19.0228L6.71581 17.7017L1.20069 23.2137L2.52172 25.4165L0.03125 26.0383V33.8367L2.52275 34.4585L1.20069 36.6613L6.71478 42.1743L8.91547 40.8533L9.53834 43.3438H15.5V58.8125C15.5 61.6557 17.8131 63.9688 20.6562 63.9688H47.4688C50.3119 63.9688 52.625 61.6557 52.625 58.8125V47.1264C59.1033 45.7053 63.9688 39.9293 63.9688 33.0312ZM61.9062 33.0312C61.9062 35.0412 61.4143 36.9345 60.5605 38.6144C59.9881 37.0397 58.6712 35.8012 56.9697 35.3753L52.625 34.2883V34.0419C53.9099 33.0735 54.6875 31.5504 54.6875 29.9385V27.876C54.6875 26.4354 54.078 25.0494 53.0148 24.0738C51.9526 23.1013 50.513 22.6125 49.0734 22.7394C46.4385 22.9673 44.375 25.3185 44.375 28.0885V29.9375C44.375 31.5493 45.1526 33.0725 46.4375 34.0408V34.2873L42.0928 35.3742C40.3913 35.8002 39.0744 37.0387 38.502 38.6134C37.6482 36.9345 37.1562 35.0412 37.1562 33.0312C37.1562 26.2075 42.7075 20.6562 49.5312 20.6562C56.355 20.6562 61.9062 26.2075 61.9062 33.0312ZM46.4375 18.9361C45.728 19.0918 45.0412 19.3063 44.375 19.5621V16.5312H23.75V30.9688H35.2588C35.1608 31.6442 35.0938 32.329 35.0938 33.0312C35.0938 39.9293 39.9592 45.7053 46.4375 47.1264V49.5312H21.6875V14.4688H46.4375V18.9361ZM35.7022 28.9062H25.8125V18.5938H42.3125V20.5469C39.1631 22.3753 36.7644 25.3515 35.7022 28.9062ZM20.6562 2.09375H47.4688C49.1744 2.09375 50.5625 3.48181 50.5625 5.1875V8.28125H17.5625V5.1875C17.5625 3.48181 18.9506 2.09375 20.6562 2.09375ZM15.5 34.6524C14.8493 34.9391 14.147 35.0938 13.4375 35.0938C10.5943 35.0938 8.28125 32.7807 8.28125 29.9375C8.28125 27.0943 10.5943 24.7812 13.4375 24.7812C14.147 24.7812 14.8493 24.9359 15.5 25.2226V34.6524ZM11.1492 41.2812L10.6469 39.2713L10.4376 38.7196L9.25991 38.2411L7.03447 39.5776L3.79841 36.3405L5.13491 34.1141L4.61928 32.8559L2.09375 32.2258V27.6492L4.61619 27.0191L5.13491 25.7609L3.79841 23.5345L7.03447 20.2974L9.25991 21.6339L10.518 21.1224L11.1492 18.5938H15.5V23.0333C14.8307 22.8322 14.1377 22.7188 13.4375 22.7188C9.45687 22.7188 6.21875 25.9579 6.21875 29.9375C6.21875 33.9171 9.45687 37.1562 13.4375 37.1562C14.1377 37.1562 14.8307 37.0428 15.5 36.8417V41.2812H11.1492ZM47.4688 61.9062H20.6562C18.9506 61.9062 17.5625 60.5182 17.5625 58.8125V55.7188H50.5625V58.8125C50.5625 60.5182 49.1744 61.9062 47.4688 61.9062ZM50.5625 53.6562H17.5625V10.3438H50.5625V18.6463C50.2201 18.6216 49.8798 18.5938 49.5312 18.5938C49.1827 18.5938 48.8424 18.6216 48.5 18.6463V12.4062H19.625V51.5938H48.5V47.4162C48.8424 47.4409 49.1827 47.4688 49.5312 47.4688C49.8798 47.4688 50.2201 47.4409 50.5625 47.4162V53.6562ZM49.5312 45.4062C45.8342 45.4062 42.5198 43.7676 40.25 41.1895V40.3768C40.25 38.9548 41.2142 37.7203 42.593 37.3749L48.5 35.8992V32.8972L47.9875 32.5992C47.0171 32.034 46.4375 31.0389 46.4375 29.9375V28.0885C46.4375 26.3776 47.674 24.9308 49.2518 24.7936C50.1366 24.7225 50.975 25.0009 51.6216 25.5939C52.2589 26.1786 52.625 27.0098 52.625 27.875V29.9375C52.625 31.0389 52.0454 32.034 51.075 32.5992L50.5625 32.8972V35.8992L56.4695 37.3749C57.8483 37.7203 58.8125 38.9548 58.8125 40.3768V41.1895C56.5427 43.7676 53.2283 45.4062 49.5312 45.4062Z" fill="white"/>
</svg>
