<svg width="28" height="34" viewBox="0 0 28 34" fill="none" xmlns="http://www.w3.org/2000/svg">
<path d="M27.0921 4.85783L22.9732 0.62284C22.8819 0.529016 22.7566 0.476074 22.6258 0.476074H1.61021C1.16489 0.476074 0.802616 0.838475 0.802551 1.2838V5.06341C0.802551 5.33108 1.01954 5.54801 1.28715 5.54801C1.55476 5.54801 1.77175 5.33108 1.77175 5.06341V1.44534H22.4211L26.2602 5.39254V32.5228H23.5139C23.2462 32.5228 23.0293 32.7397 23.0293 33.0073C23.0293 33.275 23.2462 33.4919 23.5139 33.4919H26.4217C26.8671 33.4919 27.2294 33.1297 27.2294 32.6843V5.19567C27.2294 5.06947 27.1802 4.94831 27.0921 4.85783Z" fill="white"/>
</svg>
