<svg width="34" height="32" viewBox="0 0 34 32" fill="none" xmlns="http://www.w3.org/2000/svg">
<path d="M33.4602 17.509C33.1637 14.5273 31.8317 11.7163 29.7092 9.59379C27.8954 7.78002 25.6753 6.61445 23.3392 6.09619V4.45775C24.2933 4.22038 25.0025 3.35673 25.0025 2.33019C25.0025 1.12122 24.019 0.137695 22.8101 0.137695H18.1671C16.9582 0.137695 15.9746 1.12122 15.9746 2.33019C15.9746 3.35666 16.6838 4.22031 17.6379 4.45775V6.10076C15.309 6.62122 13.0963 7.78518 11.2876 9.59386C10.8918 9.98967 10.5268 10.4049 10.1927 10.8364C10.1765 10.8352 10.1603 10.834 10.1438 10.834H5.54854C5.19246 10.834 4.90369 11.1227 4.90369 11.4788C4.90369 11.835 5.19246 12.1237 5.54854 12.1237H9.31525C8.84244 12.9152 8.46121 13.7465 8.17103 14.6022H1.15279C0.796699 14.6022 0.507935 14.8909 0.507935 15.2471C0.507935 15.6032 0.796699 15.8919 1.15279 15.8919H7.80662C7.62077 16.7077 7.51412 17.538 7.48658 18.3705H4.63498C4.2789 18.3705 3.99013 18.6592 3.99013 19.0154C3.99013 19.3715 4.2789 19.6602 4.63498 19.6602H7.50715C7.56158 20.4949 7.69577 21.3253 7.9098 22.1389H3.73219C3.3761 22.1389 3.08734 22.4276 3.08734 22.7837C3.08734 23.1399 3.3761 23.4286 3.73219 23.4286H8.32134C8.95394 25.102 9.94256 26.6705 11.2876 28.0155C13.4121 30.14 16.226 31.4724 19.2108 31.7673C19.6367 31.8094 20.0631 31.8302 20.4888 31.8302C23.0051 31.8302 25.4895 31.102 27.5975 29.7292C27.8959 29.5349 27.9803 29.1354 27.786 28.8369C27.5916 28.5385 27.1921 28.4541 26.8937 28.6484C22.2793 31.6533 16.0995 31.0036 12.1995 27.1036C7.62355 22.5276 7.62355 15.0819 12.1995 10.5059C16.7755 5.92994 24.2211 5.92994 28.7972 10.5059C32.692 14.4008 33.3452 20.5753 30.3504 25.1874C30.1564 25.4861 30.2413 25.8855 30.54 26.0794C30.8388 26.2734 31.2381 26.1885 31.432 25.8898C33.0321 23.4255 33.7524 20.4492 33.4602 17.509ZM17.2643 2.33025C17.2643 1.83243 17.6693 1.42746 18.1671 1.42746H22.8101C23.3079 1.42746 23.7128 1.83243 23.7128 2.33025C23.7128 2.82808 23.3079 3.23305 22.8101 3.23305H22.6944H18.2827H18.1671C17.6693 3.23305 17.2643 2.82801 17.2643 2.33025ZM18.9276 5.87906V4.52275H22.0495V5.87674C21.0129 5.75345 19.9641 5.75422 18.9276 5.87906Z" fill="white"/>
</svg>
