<svg width="57" height="68" viewBox="0 0 57 68" fill="none" xmlns="http://www.w3.org/2000/svg">
<path d="M36.8369 64.9984H6.5622C4.39507 64.9984 2.63194 63.2353 2.63194 61.0682V5.98076C2.63194 3.81363 4.39507 2.05051 6.5622 2.05051H50.256C52.4231 2.05051 54.1863 3.81363 54.1863 5.98076V31.1443C54.1863 31.7105 54.6454 32.1695 55.2115 32.1695C55.7777 32.1695 56.2368 31.7104 56.2368 31.1443V5.98076C56.2368 2.68297 53.5538 0 50.256 0H6.5622C3.26427 0 0.581299 2.68297 0.581299 5.98076V61.0682C0.581299 64.3661 3.26427 67.0491 6.56206 67.0491H36.8369C37.4032 67.0491 37.8622 66.59 37.8622 66.0238C37.8622 65.4577 37.4032 64.9984 36.8369 64.9984Z" fill="white"/>
</svg>
