<svg width="60" height="58" viewBox="0 0 60 58" fill="none" xmlns="http://www.w3.org/2000/svg">
<path d="M58.1548 55.1816H6.49414C4.044 55.1816 2.05078 53.1884 2.05078 50.7383V15.123H47.3047C47.8711 15.123 48.3301 14.6641 48.3301 14.0977C48.3301 13.5312 47.8711 13.0723 47.3047 13.0723H2.05078V7.26172C2.05078 4.81158 4.044 2.81836 6.49414 2.81836H11.0481C11.6145 2.81836 12.0735 2.35939 12.0735 1.79297C12.0735 1.22654 11.6145 0.767578 11.0481 0.767578H6.49414C2.91334 0.767578 0 3.68092 0 7.26172V50.7383C0 54.3191 2.91334 57.2324 6.49414 57.2324H58.1548C58.7212 57.2324 59.1802 56.7734 59.1802 56.207C59.1802 55.6406 58.7212 55.1816 58.1548 55.1816Z" fill="white"/>
</svg>
