<svg width="68" height="70" viewBox="0 0 68 70" fill="none" xmlns="http://www.w3.org/2000/svg">
<path d="M65.3367 35.2658L63.6998 34.4632C63.7117 33.3069 63.6938 32.2565 63.6998 31.2676C63.6998 26.1797 62.3946 21.182 59.9202 16.7625C60.4985 15.9286 60.5273 14.8158 59.9406 13.9381C57.7661 10.6839 55.0377 7.89441 51.8314 5.64703C49.7314 4.17512 47.4572 2.96598 45.0722 2.05297C44.5432 1.85049 43.9504 2.11518 43.7479 2.644C43.5454 3.17297 43.8101 3.76578 44.3389 3.96826C46.567 4.82111 48.6919 5.95096 50.6542 7.32648C53.6518 9.42758 56.2026 12.0355 58.2354 15.0776C58.3637 15.2694 58.3336 15.5221 58.1642 15.6784C58.0088 15.8014 54.5844 19.0229 54.3772 19.1483C54.2731 19.2004 54.1726 19.1991 54.1134 19.1912C54.0298 19.1799 53.8738 19.1354 53.7679 18.9651C52.4216 16.8012 50.7408 14.8801 48.772 13.2546C44.6016 9.81148 39.3289 7.9152 33.9252 7.9152C28.243 7.9152 22.7634 9.98812 18.4953 13.7523C16.8153 15.2337 15.3584 16.9436 14.1648 18.8338C14.0663 18.9898 13.917 19.0282 13.8366 19.0371C13.7525 19.0467 13.5909 19.0416 13.452 18.9026L9.89169 15.3422C9.7331 15.1834 9.71081 14.9334 9.83878 14.7473C11.3483 12.5537 13.1501 10.5734 15.1942 8.86156C20.4393 4.46961 27.0915 2.05078 33.9253 2.05078C35.805 2.05078 37.6858 2.23125 39.5158 2.58727C40.0715 2.69541 40.6099 2.33242 40.7181 1.77652C40.8262 1.22063 40.4632 0.682363 39.9073 0.574219C37.9487 0.193184 35.9361 0 33.9253 0C26.6109 0 19.4911 2.58891 13.8776 7.28957C11.6913 9.12051 9.764 11.2387 8.14935 13.5851C7.53097 14.4838 7.56925 15.6625 8.20458 16.5149C7.1863 18.2617 6.34521 20.1027 5.70181 21.9991C5.51984 22.5354 5.80722 23.1176 6.34343 23.2996C6.45267 23.3367 6.56369 23.3542 6.67292 23.3542C7.10017 23.3542 7.49898 23.085 7.6439 22.658C8.18257 21.0703 8.87191 19.5245 9.69468 18.0455L11.8844 20.2353C10.1453 23.7155 9.22861 27.5901 9.22861 31.4981V52.8459L3.56613 50.0697C2.89908 49.7427 2.468 49.0514 2.468 48.3085V38.8683C2.468 38.1254 2.89908 37.4341 3.56613 37.1071C3.9123 36.922 4.6108 36.6174 5.18884 36.3111C5.81365 35.976 6.20179 35.3272 6.20179 34.6177V31.5104C6.19441 30.1909 6.28546 28.8591 6.47236 27.5522C6.55261 26.9916 6.1631 26.4722 5.60255 26.3921C5.04269 26.3117 4.52261 26.7013 4.44236 27.2619C4.24111 28.6684 4.14322 30.1016 4.15101 31.5161V34.5402C3.89453 34.6819 3.04249 35.0669 2.62605 35.2842C1.28292 35.9606 0.417358 37.3626 0.417358 38.8683V48.3085C0.417358 49.828 1.29906 51.2422 2.66337 51.9112L9.50314 55.2645C10.222 57.4459 12.278 59.0256 14.6972 59.0256C17.7126 59.0256 20.1657 56.5726 20.1657 53.5572V35.1132C20.1657 32.0979 17.7126 29.6447 14.6972 29.6447C13.4096 29.6447 12.2253 30.0932 11.2899 30.8406C11.3867 27.4511 12.2297 24.1075 13.7488 21.0902C13.8534 21.0915 13.9585 21.0871 14.0642 21.0752C14.8237 20.9904 15.4925 20.5726 15.8991 19.9285C16.9884 18.2033 18.3184 16.6426 19.8519 15.2902C23.7451 11.8568 28.7432 9.96584 33.9253 9.96584C38.8536 9.96584 43.6626 11.6953 47.4665 14.8359C49.2637 16.3197 50.7979 18.0733 52.0266 20.0482C52.4282 20.6935 53.0885 21.1218 53.8384 21.2233C53.9516 21.2386 54.0647 21.2461 54.1772 21.2461C54.2267 21.2461 54.2758 21.2421 54.3249 21.2393C55.7969 24.2166 56.615 27.5078 56.7103 30.8406C55.7749 30.093 54.5907 29.6446 53.3029 29.6446C50.2876 29.6446 47.8344 32.0977 47.8344 35.1131V38.1883C47.8344 38.7546 48.2935 39.2137 48.8598 39.2137C49.4261 39.2137 49.8852 38.7546 49.8852 38.1883V35.1131C49.8852 33.2285 51.4184 31.6954 53.3029 31.6954C55.1874 31.6954 56.7206 33.2285 56.7206 35.1131V53.5571C56.7206 55.4415 55.1874 56.9747 53.3029 56.9747C51.4184 56.9747 49.8852 55.4415 49.8852 53.5571V43.3584C49.8852 42.7921 49.4261 42.333 48.8598 42.333C48.2935 42.333 47.8344 42.7921 47.8344 43.3584V53.5571C47.8344 56.5724 50.2876 59.0255 53.3029 59.0255C54.5953 59.0255 55.7835 58.5739 56.7206 57.8214V60.264C56.7206 61.0017 56.1203 61.6021 55.3825 61.6021H43.0968C42.7773 60.6561 41.8835 59.9724 40.8311 59.9724H33.0777C31.7585 59.9724 30.6851 61.0457 30.6851 62.3649V67.6074C30.6851 68.9266 31.7585 70 33.0777 70H40.8311C41.8798 70 42.771 69.3208 43.0933 68.3799H49.7505C50.3168 68.3799 50.7759 67.9208 50.7759 67.3545C50.7759 66.7882 50.3168 66.3291 49.7505 66.3291H43.2237V63.653H55.3825C57.2511 63.653 58.7714 62.1327 58.7714 60.2641V55.1298L61.4475 53.8178V62.923C61.4475 64.8011 59.9195 66.3291 58.0414 66.3291H54.8657C54.2994 66.3291 53.8403 66.7882 53.8403 67.3545C53.8403 67.9208 54.2994 68.3799 54.8657 68.3799H58.0414C61.0503 68.3799 63.4983 65.9319 63.4983 62.923V52.8124L65.3367 51.9112C66.7011 51.2422 67.5828 49.8281 67.5828 48.3085V38.8683C67.5828 37.3488 66.7011 35.9347 65.3367 35.2658ZM14.6971 31.6956C16.5816 31.6956 18.1148 33.2288 18.1148 35.1133V53.5574C18.1148 55.4418 16.5816 56.9749 14.6971 56.9749C12.8126 56.9749 11.2794 55.4418 11.2794 53.5574V35.1132C11.2794 33.2287 12.8126 31.6956 14.6971 31.6956ZM32.7358 67.6074V62.3652C32.7358 62.1768 32.8892 62.0234 33.0775 62.0234H35.9288V67.9492H33.0775C32.8892 67.9492 32.7358 67.7958 32.7358 67.6074ZM41.1728 67.6074C41.1728 67.7958 41.0194 67.9492 40.831 67.9492H37.9797V62.0234H40.831C41.0194 62.0234 41.1728 62.1768 41.1728 62.3652V67.6074ZM65.532 48.3086C65.532 49.0515 65.1009 49.7428 64.4339 50.0698L58.7714 52.846C58.7714 50.2309 58.7714 33.6279 58.7714 31.4982C58.7714 27.6235 57.8694 23.7776 56.1581 20.3201L58.3983 18.2529C60.5251 22.2391 61.6457 26.7047 61.649 31.2484C61.6416 32.0999 61.6622 33.2419 61.6477 34.6183C61.6412 35.2971 62.0305 35.9287 62.6396 36.2275L64.434 37.1072C65.101 37.4343 65.5321 38.1255 65.5321 38.8685V48.3086H65.532Z" fill="white"/>
</svg>
