<svg width="70" height="70" viewBox="0 0 70 70" fill="none" xmlns="http://www.w3.org/2000/svg">
<path d="M65.2262 60.2249C67.8584 60.2249 70 58.0833 70 55.4509V6.83594C70 3.0666 66.9334 0 63.1641 0H6.83594C3.0666 0 0 3.0666 0 6.83594V55.4509C0 58.0833 2.14156 60.2249 4.77381 60.2249H6.28906V67.2656H1.36719C0.61209 67.2656 0 67.8779 0 68.6328C0 69.3878 0.61209 70 1.36719 70H68.6328C69.3879 70 70 69.3878 70 68.6328C70 67.8779 69.3879 67.2656 68.6328 67.2656H63.7109V60.2249H65.2262ZM2.73438 6.83594C2.73438 4.57434 4.57434 2.73438 6.83594 2.73438H63.1641C65.4257 2.73438 67.2656 4.57434 67.2656 6.83594V9.84375H2.87164C2.82529 9.84375 2.77949 9.84621 2.73438 9.85072V6.83594ZM15.0391 67.2656H9.02344V54.9609H15.0391V67.2656ZM30.3516 67.2656H24.3359V39.8442H30.3516V67.2656ZM45.6641 67.2656H39.6484V51.4062H45.6641V67.2656ZM62.3438 35.0684H53.5938C52.8387 35.0684 52.2266 35.6806 52.2266 36.4355V43.3397C52.2266 44.0947 52.8387 44.7069 53.5938 44.7069C54.3488 44.7069 54.9609 44.0947 54.9609 43.3397V37.8027H60.9766V67.2656H54.9609V52.5342C54.9609 51.7792 54.3488 51.167 53.5938 51.167C52.8387 51.167 52.2266 51.7792 52.2266 52.5342V67.2656H48.3984V50.0391C48.3984 49.2841 47.7863 48.6719 47.0312 48.6719H38.2812C37.5262 48.6719 36.9141 49.2841 36.9141 50.0391V67.2656H33.0859V38.477C33.0859 37.7221 32.4738 37.1098 31.7188 37.1098H22.9688C22.2137 37.1098 21.6016 37.7221 21.6016 38.477V67.2656H17.7734V53.5938C17.7734 52.8388 17.1613 52.2266 16.4062 52.2266H7.65625C6.90115 52.2266 6.28906 52.8388 6.28906 53.5938V57.4905H4.77381C3.64916 57.4905 2.73438 56.5756 2.73438 55.4509V12.5712C2.77949 12.5757 2.82529 12.5781 2.87164 12.5781H67.2656V55.4509C67.2656 56.5756 66.3507 57.4905 65.2262 57.4905H63.7109V36.4355C63.7109 35.6806 63.0988 35.0684 62.3438 35.0684Z" fill="white"/>
</svg>
