<svg width="41" height="66" viewBox="0 0 41 66" fill="none" xmlns="http://www.w3.org/2000/svg">
<path fill-rule="evenodd" clip-rule="evenodd" d="M6.65922 0H33.888C35.6511 0.00971445 37.3392 0.714431 38.5859 1.96117C39.8327 3.20791 40.5374 4.89609 40.5471 6.65922V34.3072H39.0673V6.65922C39.0673 5.28557 38.5217 3.96817 37.5504 2.99685C36.5791 2.02553 35.2617 1.47984 33.888 1.47984H6.65922C5.28557 1.47984 3.96817 2.02553 2.99685 2.99685C2.02553 3.96817 1.47991 5.28557 1.47991 6.65922V59.3408C1.47991 60.7145 2.02553 62.0318 2.99685 63.0032C3.96817 63.9745 5.28557 64.5202 6.65922 64.5202H33.888C35.2617 64.5202 36.5791 63.9745 37.5504 63.0032C38.5217 62.0318 39.0673 60.7145 39.0673 59.3408V51.1895H40.5471V59.3408C40.5374 61.1039 39.8327 62.7921 38.5859 64.0388C37.3392 65.2856 35.6511 65.9903 33.888 66H6.65922C4.89609 65.9903 3.20791 65.2856 1.96117 64.0388C0.714431 62.7921 0.00971445 61.1039 0 59.3408V6.65922C0.00971445 4.89609 0.714431 3.20791 1.96117 1.96117C3.20791 0.714431 4.89609 0.00971445 6.65922 0Z" fill="#1B3858"/>
</svg>
