<svg width="66" height="66" viewBox="0 0 66 66" fill="none" xmlns="http://www.w3.org/2000/svg">
<path d="M62.1328 10.3125H59.0391V3.86719C59.0391 1.73482 57.3042 0 55.1719 0H10.8281C8.69576 0 6.96094 1.73482 6.96094 3.86719V10.3125H3.86719C1.73482 10.3125 0 12.0473 0 14.1797V51.3044C0 53.4368 1.73482 55.1716 3.86719 55.1716H26.5547V58.2651H24.1024C21.97 58.2651 20.2352 59.9999 20.2352 62.1323V64.7109C20.2352 65.4229 20.8123 66 21.5243 66H44.4759C45.1878 66 45.7649 65.4229 45.7649 64.7109V62.1323C45.7649 59.9999 44.0301 58.2651 41.8978 58.2651H39.4453V55.1716H62.1328C64.2652 55.1716 66 53.4368 66 51.3044V14.1797C66 12.0473 64.2652 10.3125 62.1328 10.3125ZM62.1328 12.8906C62.8436 12.8906 63.4219 13.4689 63.4219 14.1797V43.8279H59.0391V12.8906H62.1328ZM10.8281 2.57812H55.1719C55.8827 2.57812 56.4609 3.1564 56.4609 3.86719V10.3125H9.53906V3.86719C9.53906 3.1564 10.1173 2.57812 10.8281 2.57812ZM3.86719 12.8906H6.96094V22.5573C6.96094 23.2693 7.53805 23.8464 8.25 23.8464C8.96195 23.8464 9.53906 23.2693 9.53906 22.5573V12.8906H56.4609V43.8279H49.8867V39.5799C49.8867 38.8679 49.3096 38.2908 48.5977 38.2908H46.9205C46.6256 37.2758 46.2211 36.3 45.7109 35.3728L46.8975 34.1863C47.4009 33.6829 47.4009 32.8667 46.8975 32.3632L42.9839 28.4496C42.4805 27.9464 41.6643 27.9464 41.1608 28.4496L39.9743 29.6362C39.0472 29.126 38.0713 28.7215 37.0563 28.4268V26.7496C37.0563 26.0376 36.4792 25.4605 35.7672 25.4605H30.2325C29.5206 25.4605 28.9435 26.0376 28.9435 26.7496V28.4268C27.9284 28.7216 26.9526 29.126 26.0254 29.6362L24.8389 28.4496C24.3356 27.9464 23.5193 27.9464 23.0158 28.4496L19.1022 32.3632C18.5989 32.8666 18.5989 33.6828 19.1022 34.1863L20.2888 35.3728C19.7786 36.2999 19.3741 37.2758 19.0793 38.2908H17.4023C16.6904 38.2908 16.1133 38.8679 16.1133 39.5799V43.8279H9.53906V34.1589C9.53906 33.4469 8.96195 32.8698 8.25 32.8698C7.53805 32.8698 6.96094 33.4469 6.96094 34.1589V43.8279H2.57812V14.1797C2.57812 13.4689 3.1564 12.8906 3.86719 12.8906ZM22.8222 34.2599L21.837 33.2747L23.9276 31.1841L24.9128 32.1693C25.343 32.5992 26.0152 32.6703 26.5257 32.3394C27.7455 31.5484 29.0832 30.994 30.5015 30.6915C31.0966 30.5647 31.5218 30.0392 31.5218 29.4308V28.0384H34.4784V29.4308C34.4784 30.0392 34.9037 30.5647 35.4987 30.6915C36.9169 30.994 38.2546 31.5483 39.4746 32.3394C39.985 32.6703 40.6573 32.5994 41.0875 32.1693L42.0727 31.1841L44.1633 33.2747L43.1781 34.2599C42.748 34.6901 42.677 35.3623 43.008 35.8728C43.799 37.0928 44.3534 38.4304 44.6558 39.8487C44.7827 40.4436 45.3082 40.869 45.9165 40.869H47.3086V43.8279H39.2722C39.3869 43.3445 39.4461 42.8477 39.4461 42.3472C39.4461 38.7928 36.5543 35.9012 33 35.9012C29.4457 35.9012 26.5539 38.7929 26.5539 42.3472C26.5539 42.8477 26.6131 43.3445 26.7278 43.8279H18.6914V40.869H20.0837C20.692 40.869 21.2176 40.4437 21.3444 39.8487C21.6468 38.4303 22.2013 37.0926 22.9922 35.8728C23.3233 35.3625 23.2524 34.6901 22.8222 34.2599ZM29.132 42.3472C29.132 40.2145 30.8671 38.4793 33 38.4793C35.1329 38.4793 36.868 40.2145 36.868 42.3472C36.868 42.8563 36.765 43.3592 36.5694 43.8279H29.4306C29.235 43.3592 29.132 42.8563 29.132 42.3472ZM43.1867 62.1323V63.4219H22.8133V62.1323C22.8133 61.4215 23.3916 60.8432 24.1024 60.8432H41.8978C42.6085 60.8432 43.1867 61.4215 43.1867 62.1323ZM36.8672 58.2651H29.1328V55.1716H36.8672V58.2651ZM62.1328 52.5935H3.86719C3.1564 52.5935 2.57812 52.0152 2.57812 51.3044V46.406H63.4219V51.3044C63.4219 52.0152 62.8436 52.5935 62.1328 52.5935Z" fill="#1B3858"/>
</svg>
